<?xml version="1.0" standalone="no"?>
<!DOCTYPE svg PUBLIC "-//W3C//DTD SVG 20010904//EN"
 "http://www.w3.org/TR/2001/REC-SVG-20010904/DTD/svg10.dtd">
<svg version="1.0" xmlns="http://www.w3.org/2000/svg"
 width="1167.000000pt" height="1057.000000pt" viewBox="0 0 1167.000000 1057.000000"
 preserveAspectRatio="xMidYMid meet">

<g transform="translate(0.000000,1057.000000) scale(0.100000,-0.100000)"
fill="#000000" stroke="none">
<path d="M5420 10309 c-1681 -40 -3280 -340 -4585 -859 -94 -37 -453 -190
-482 -205 -4 -2 36 -360 57 -510 92 -649 258 -1309 508 -2020 381 -1080 1034
-2308 1737 -3265 452 -615 819 -1043 1322 -1541 398 -395 728 -677 1168 -1000
214 -157 665 -452 691 -452 5 0 82 44 170 98 614 378 1192 843 1762 1415 1040
1044 1948 2372 2587 3785 513 1135 833 2267 944 3350 11 99 18 181 18 181 -1
1 -65 27 -142 59 -410 167 -917 338 -1314 445 -1013 272 -1934 421 -3061 495
-192 12 -1019 39 -1055 33 -5 -1 -152 -5 -325 -9z m840 -209 c1615 -59 3084
-380 4318 -945 l192 -88 0 -49 c0 -27 -5 -115 -10 -196 -150 -2101 -1169
-4418 -2719 -6182 -170 -193 -530 -561 -718 -732 -262 -239 -559 -478 -838
-674 -104 -73 -351 -234 -360 -234 -3 0 -5 71 -5 158 l0 159 41 94 c122 278
226 595 318 964 188 754 236 1539 136 2207 -9 56 -12 105 -8 109 5 4 179 105
388 224 209 119 385 222 392 228 13 14 139 624 131 633 -8 7 -1258 -387 -1272
-402 -7 -6 -17 -80 -24 -165 -7 -85 -35 -413 -63 -729 l-50 -575 93 -792 c50
-436 90 -795 87 -797 -2 -3 -98 -35 -213 -71 l-208 -67 -212 67 c-116 37 -212
68 -213 69 0 0 40 357 91 791 l92 790 -62 734 c-35 403 -64 734 -66 736 -3 3
-1275 405 -1281 405 -10 0 125 -625 136 -632 7 -4 187 -107 400 -229 307 -174
387 -224 383 -237 -12 -37 -46 -338 -57 -502 -14 -210 -6 -626 16 -850 63
-632 232 -1319 451 -1835 l68 -160 4 -182 c1 -101 0 -183 -3 -183 -21 0 -406
257 -590 395 -358 267 -601 480 -971 849 -347 348 -589 621 -866 977 -701 902
-1303 1977 -1696 3029 -320 860 -512 1691 -577 2503 -8 104 -15 215 -15 248
l0 59 161 80 c1410 706 3296 1069 5199 1000z"/>
<path d="M5315 9854 c-474 -27 -757 -50 -1060 -89 -1117 -142 -2092 -401
-2972 -791 l-133 -58 0 -46 c0 -71 37 -425 66 -619 181 -1260 669 -2582 1407
-3821 606 -1016 1345 -1901 2155 -2583 78 -66 144 -118 146 -116 2 2 -29 237
-70 521 l-73 518 -447 582 c-246 321 -473 617 -504 658 l-58 75 100 815 c90
729 99 821 90 875 -6 33 -78 368 -161 744 l-151 683 527 1137 c641 1385 574
1246 598 1246 16 0 23 -20 50 -150 264 -1252 458 -2171 461 -2174 2 -2 128 12
281 31 l277 35 279 -34 c153 -19 281 -32 284 -29 3 3 35 142 70 308 35 167
144 686 243 1154 99 468 180 854 180 858 0 4 9 6 21 4 17 -2 118 -214 565
-1178 300 -646 547 -1186 550 -1200 4 -20 -210 -1026 -296 -1395 l-19 -80 94
-775 c52 -426 98 -798 101 -826 l6 -52 -463 -603 c-255 -332 -482 -629 -505
-659 l-41 -55 -68 -480 c-37 -264 -69 -491 -72 -504 -5 -20 -3 -22 13 -13 11
6 62 47 114 92 825 707 1561 1592 2169 2609 682 1139 1167 2412 1355 3556 47
280 96 699 96 811 l0 42 -177 82 c-1061 495 -2270 784 -3688 881 -149 10
-1207 20 -1340 13z"/>
</g>
</svg>
