<?xml version="1.0" standalone="no"?>
<!DOCTYPE svg PUBLIC "-//W3C//DTD SVG 20010904//EN" "http://www.w3.org/TR/2001/REC-SVG-20010904/DTD/svg10.dtd">
<svg version="1.0" xmlns="http://www.w3.org/2000/svg" width="1024.000000pt" height="1024.000000pt"
    viewBox="0 0 1024.000000 1024.000000" preserveAspectRatio="xMidYMid meet">

    <g transform="translate(0.000000,1024.000000) scale(0.100000,-0.100000)" fill="#3b83bd" stroke="none">
        <path d="M3970 9403 c0 -138 -39 -384 -102 -643 -40 -168 -127 -452 -141 -466
-7 -7 -66 -19 -132 -28 -495 -69 -1322 -234 -1782 -356 -109 -29 -123 -35
-123 -54 0 -35 38 -431 55 -576 81 -706 215 -1371 405 -2020 l22 -75 -71 -161
c-39 -89 -71 -168 -71 -177 0 -45 262 -664 414 -977 627 -1295 1544 -2410
2522 -3068 l61 -41 90 80 c102 89 200 198 278 309 41 58 64 80 102 99 113 54
327 192 508 326 340 251 728 629 1017 990 910 1135 1497 2633 1742 4445 41
299 86 741 86 836 l0 31 -122 33 c-301 80 -855 199 -1253 269 -852 151 -1665
229 -2288 219 l-207 -3 0 177 c0 216 -21 391 -61 513 -30 89 -92 216 -129 265
l-20 25 0 -29 c0 -35 -25 -133 -51 -206 -41 -112 -214 -432 -283 -525 -14 -19
-15 -19 -21 10 -47 204 -83 310 -150 450 -71 146 -124 224 -217 320 l-77 80
-1 -72z m2003 -1347 c778 -64 1637 -204 2494 -407 l53 -12 -5 -36 c-3 -20 -14
-121 -26 -226 -118 -1102 -378 -2118 -775 -3030 -73 -169 -300 -613 -398 -780
-450 -764 -997 -1380 -1632 -1837 l-50 -37 0 147 c0 120 -5 169 -27 268 -90
423 -240 774 -546 1284 -120 199 -164 298 -181 406 -19 119 0 190 76 277 133
152 191 357 182 635 -6 163 4 259 33 336 35 92 34 91 125 45 106 -53 214 -73
354 -66 96 6 231 26 271 42 10 3 34 2 55 -4 22 -6 90 -15 153 -22 179 -18 405
7 651 73 164 44 269 113 285 187 7 32 -18 125 -36 136 -19 13 -7 21 49 34 215
49 399 181 449 320 12 36 26 53 51 67 56 30 152 164 152 213 0 35 -35 93 -87
142 -157 150 -446 270 -966 400 -291 73 -400 111 -573 195 -153 75 -234 140
-234 190 0 72 -94 216 -207 316 -164 146 -490 323 -759 412 l-52 17 24 87 c14
48 31 119 39 157 9 39 18 76 20 84 7 18 771 9 1038 -13z m-2377 -143 c-26 -74
-89 -229 -106 -263 -10 -19 -41 -60 -70 -90 -161 -169 -303 -418 -390 -683
l-32 -99 -177 -176 c-109 -110 -202 -213 -244 -272 -120 -168 -227 -415 -227
-524 0 -60 -19 -8 -59 164 -78 339 -140 672 -190 1025 -32 222 -71 564 -71
613 l0 30 133 32 c369 88 1059 222 1439 279 4 1 1 -16 -6 -36z" />
    </g>
</svg>