<?xml version="1.0" standalone="no"?>
<!DOCTYPE svg PUBLIC "-//W3C//DTD SVG 20010904//EN"
 "http://www.w3.org/TR/2001/REC-SVG-20010904/DTD/svg10.dtd">
<svg version="1.0" xmlns="http://www.w3.org/2000/svg"
 width="980.000000pt" height="812.000000pt" viewBox="0 0 980.000000 812.000000"
 preserveAspectRatio="xMidYMid meet">

<g transform="translate(0.000000,812.000000) scale(0.100000,-0.100000)"
fill="#000000" stroke="none">
<path d="M5605 8111 c-84 -21 -160 -81 -231 -182 -112 -159 -344 -289 -517
-289 -97 0 -142 16 -172 61 -14 22 -52 66 -84 98 -184 184 -409 248 -656 185
-93 -23 -362 -160 -522 -266 -322 -212 -560 -454 -642 -652 -32 -77 -37 -166
-21 -369 41 -537 188 -892 453 -1093 72 -55 217 -126 299 -147 l58 -15 72 51
c88 61 224 191 287 272 66 86 136 228 156 319 26 115 17 354 -18 488 -60 227
-184 415 -346 522 -70 46 -81 60 -81 103 0 31 51 83 82 83 43 0 133 -62 229
-159 147 -147 228 -295 285 -517 29 -114 48 -315 39 -414 -22 -255 -139 -487
-344 -683 -90 -86 -212 -179 -307 -235 -58 -34 -67 -44 -115 -130 -28 -51 -65
-127 -83 -170 l-31 -77 -3 -316 -3 -317 -135 -78 c-300 -174 -547 -391 -686
-606 l-50 -76 -37 15 c-193 80 -342 212 -414 366 -98 211 -38 453 198 798 116
169 113 208 -10 133 -119 -71 -221 -151 -325 -254 -153 -153 -244 -300 -285
-465 -25 -99 -23 -265 4 -369 78 -295 329 -564 709 -762 l94 -49 27 -70 c15
-38 40 -93 56 -121 l29 -52 -42 -47 c-61 -69 -109 -221 -100 -316 l3 -34 959
-3 c1077 -2 976 -10 1018 73 81 157 -32 423 -202 480 l-49 16 -60 -41 c-114
-77 -353 -180 -417 -180 -39 0 -74 42 -74 88 0 52 18 66 144 112 176 64 292
136 349 216 44 63 55 98 56 181 2 129 -58 261 -223 493 -152 214 -223 266
-353 258 -83 -4 -157 -38 -237 -109 -65 -58 -90 -69 -134 -57 -44 12 -67 61
-51 108 15 42 124 131 221 179 143 72 279 76 407 12 78 -40 136 -94 223 -208
244 -318 348 -558 320 -736 -5 -31 -6 -57 -3 -57 7 0 61 64 85 101 19 29 16
50 -34 317 -90 474 -245 878 -400 1048 -46 51 -55 77 -39 115 17 43 61 63 105
49 64 -21 185 -197 271 -393 190 -431 329 -1159 358 -1877 4 -80 8 -155 11
-167 l4 -23 392 0 391 0 -6 50 c-7 57 -36 129 -72 176 -59 77 -211 112 -349
80 -38 -9 -70 -15 -72 -13 -12 11 -35 140 -44 237 -13 156 -13 627 2 890 25
470 12 694 -53 894 -66 202 -185 346 -332 401 -55 21 -77 46 -77 90 0 61 60
96 127 75 203 -66 378 -278 458 -555 63 -218 71 -403 46 -1005 -13 -317 -11
-774 5 -814 5 -13 21 -16 78 -16 164 0 312 -81 389 -213 26 -43 61 -157 72
-230 l6 -38 82 3 82 3 11 50 c17 73 17 231 -1 298 -29 113 -108 227 -179 261
-72 34 -168 15 -243 -48 l-30 -25 -6 212 c-11 386 -69 711 -164 919 l-35 77
25 33 c133 178 133 431 -1 738 -28 63 -83 189 -122 280 -87 199 -221 532 -256
638 -51 150 -30 297 57 396 67 76 94 92 439 259 387 187 500 324 430 525 l-21
59 30 56 c47 89 65 190 58 321 -3 61 -15 145 -25 187 -17 70 -17 83 -4 175 25
172 -11 346 -85 404 -27 21 -32 22 -78 11z"/>
<path d="M6100 4711 c-83 -26 -170 -99 -209 -178 -27 -54 -41 -150 -41 -290
l0 -113 -165 0 -165 0 -33 -72 -33 -73 22 -56 c56 -139 113 -411 134 -639 6
-69 13 -148 16 -176 l5 -51 62 -5 c112 -9 211 -77 293 -200 57 -85 101 -208
110 -306 l7 -73 626 3 626 3 45 24 c70 37 98 61 135 115 63 93 65 112 65 686
0 565 -1 579 -60 670 -34 53 -70 84 -140 121 -41 22 -59 24 -207 27 l-161 4
-4 166 c-3 159 -4 170 -31 227 -36 76 -110 147 -183 175 -51 19 -76 20 -372
19 -174 0 -328 -4 -342 -8z m634 -225 c60 -25 66 -43 66 -208 l0 -148 -357 2
-358 3 -3 130 c-3 150 9 188 68 217 31 16 67 18 293 18 198 0 265 -3 291 -14z"/>
<path d="M9549 3460 c-116 -35 -242 -141 -385 -326 -179 -231 -386 -429 -658
-631 -509 -378 -1212 -718 -1936 -936 -190 -58 -494 -137 -525 -137 -9 0 -15
-3 -13 -7 72 -143 83 -210 48 -312 -41 -122 -106 -193 -319 -348 -80 -59 -147
-107 -148 -108 -7 -3 23 -78 33 -82 18 -7 292 33 474 68 1384 269 2561 963
3282 1934 197 265 384 600 395 706 7 71 -21 139 -69 169 -35 21 -126 26 -179
10z"/>
<path d="M105 3425 c-78 -28 -115 -96 -101 -189 18 -118 243 -492 461 -766
423 -531 981 -972 1656 -1311 460 -230 925 -390 1469 -504 118 -25 422 -77
425 -72 15 23 26 70 18 75 -5 4 -72 53 -149 108 -169 124 -253 208 -297 301
-28 59 -32 78 -32 148 1 85 27 165 66 201 28 25 24 31 -33 44 -110 26 -401
111 -549 161 -798 267 -1470 621 -1979 1042 -120 100 -333 317 -410 417 -150
198 -305 321 -438 349 -64 13 -58 13 -107 -4z"/>
<path d="M4755 1906 c-47 -49 -64 -90 -165 -408 l-63 -196 -301 -4 c-279 -3
-304 -5 -346 -24 -55 -26 -73 -46 -72 -84 2 -72 40 -109 317 -310 116 -84 211
-153 212 -154 1 0 -37 -118 -85 -261 -77 -233 -86 -268 -86 -337 -1 -67 2 -80
22 -100 29 -30 83 -28 153 4 30 14 150 96 268 181 118 86 219 153 225 150 6
-4 106 -76 223 -160 116 -85 233 -163 259 -175 66 -29 118 -29 146 0 20 20 23
32 22 100 -2 67 -12 109 -83 326 -45 136 -81 254 -81 261 0 7 96 83 213 168
228 167 277 211 302 270 13 32 14 42 3 64 -33 67 -117 82 -463 83 l-250 0 -87
268 c-88 270 -121 341 -169 368 -43 24 -70 17 -114 -30z"/>
</g>
</svg>
